<svg width="363" height="363" viewBox="0 0 363 363" fill="none" xmlns="http://www.w3.org/2000/svg">
<path d="M67.0063 230.623C57.7079 234.477 47.0306 230.8 42.0455 222.067L19.4181 182.469C14.9633 174.62 16.2714 164.756 22.6354 158.392C110.104 70.9228 251.95 70.9228 339.419 158.392C345.783 164.756 347.091 174.62 342.637 182.469L320.009 222.067C315.024 230.8 304.347 234.477 295.048 230.623L246.965 210.824C238.798 207.465 233.777 199.121 234.697 190.353L237.843 158.639C201.18 145.523 160.875 145.523 124.211 158.639L127.393 190.318C128.277 199.121 123.292 207.43 115.125 210.789L67.0417 230.587L67.0063 230.623Z" fill="#CDF0F6"/>
<path d="M57.0027 188.717C46.9469 189.158 38.1711 182.051 36.4735 172.14L28.7539 127.191C27.2523 118.292 31.8553 109.47 40.0121 105.666C152.122 53.3886 285.414 101.903 337.691 214.013C341.495 222.17 339.351 231.886 332.48 237.738L297.674 267.209C290.003 273.71 278.712 273.514 271.292 266.712L232.88 231.662C226.354 225.712 224.49 216.154 228.353 208.229L242.157 179.504C212.191 154.639 174.316 140.854 135.378 140.64L127.533 171.496C125.353 180.071 117.826 186.174 109.003 186.536L57.048 188.696L57.0027 188.717Z" fill="#B4E9F2"/>
<path d="M61.4504 145.376C51.8503 142.351 46.0345 132.671 47.829 122.777L55.9485 77.8989C57.5811 69.0228 64.9237 62.3073 73.8895 61.5229C197.119 50.7417 305.779 141.918 316.56 265.148C317.344 274.113 312.006 282.511 303.548 285.66L260.761 301.449C251.329 304.934 240.787 300.888 236.141 291.959L212.033 245.884C207.936 238.062 209.453 228.443 215.794 222.317L238.589 200.045C218.935 166.431 188.059 140.523 151.542 127.004L133.617 153.317C128.635 160.629 119.476 163.789 111.061 161.112L61.5002 145.372L61.4504 145.376Z" fill="#9BE1ED"/>
<path d="M80.8128 106.827C72.8261 100.701 70.6718 89.6158 75.742 80.9322L98.7212 41.5373C103.291 33.7549 112.488 29.9558 121.181 32.2851C240.666 64.301 311.589 187.143 279.573 306.628C277.244 315.321 269.355 321.386 260.33 321.453L214.724 321.656C204.669 321.705 196.146 314.297 194.834 304.317L187.939 252.776C186.764 244.024 191.48 235.504 199.533 231.916L228.571 218.784C221.599 180.475 201.446 145.569 171.755 120.376L145.911 138.971C138.729 144.138 129.041 143.975 122.049 138.582L80.8611 106.84L80.8128 106.827Z" fill="#82DAE9"/>
<path d="M112.635 77.6005C107.226 69.1125 108.993 57.9589 116.727 51.5331L151.794 22.3734C158.75 16.6233 168.692 16.1987 176.064 21.3609C277.393 92.3123 302.024 232.003 231.073 333.332C225.911 340.704 216.424 343.706 207.921 340.681L164.995 325.274C155.529 321.881 150.054 312.004 152.235 302.178L163.383 251.387C165.273 242.761 172.618 236.368 181.413 235.751L213.191 233.342C219.742 194.958 212.743 155.265 193.459 121.437L162.814 130.071C154.298 132.47 145.25 129.004 140.524 121.544L112.676 77.6292L112.635 77.6005Z" fill="#06B6D4"/>
</svg>
